<svg class="heart" version="1.1" id="Layer_1" xmlns="http://www.w3.org/2000/svg" xmlns:xlink="http://www.w3.org/1999/xlink" x="0px" y="0px"
	 viewBox="0 0 499.4 444.9" style="enable-background:new 0 0 499.4 444.9;" xml:space="preserve">
<style type="text/css">
	.st0{fill:#FF6647;}
	.st1{fill:#E35336;}
</style>
<path d="M358.8,16c35.1,0,67.3,14.5,90.6,40.7c21.7,24.5,34.1,57.9,34.1,91.7c0,40.6-12.3,80.6-36.5,119.1
	c-19.2,30.4-45.9,59.9-79.3,87.5c-56.6,46.9-112.4,72.1-114.7,73.2c-1,0.5-2.1,0.7-3.2,0.7c-1.1,0-2.2-0.2-3.2-0.7
	c-2.3-1.1-58.1-26.3-114.7-73.2c-33.4-27.7-60.1-57.1-79.3-87.5C28.3,229.1,16,189,16,148.4c0-33.8,12.4-67.2,34.1-91.7
	C73.4,30.5,105.5,16,140.7,16c27.6,0,53.4,11.2,74.7,32.5c14.2,14.2,25.9,32.2,34.4,52.9c8.6-20.7,20.2-38.7,34.4-52.9
	C305.4,27.2,331.2,16,358.8,16 M358.8,0c-31.9,0-61.7,12.8-86,37.2c-8.6,8.6-16.3,18.4-23.1,29.2c-6.8-10.8-14.5-20.6-23.1-29.2
	c-24.3-24.3-54-37.2-86-37.2C100.9,0,64.5,16.4,38.1,46.1C13.9,73.5,0,110.8,0,148.4C0,192.1,13.1,235,39,276
	c20.1,31.9,47.9,62.6,82.6,91.3c58.3,48.3,116,74.4,118.4,75.4c3.1,1.4,6.3,2.1,9.7,2.1c3.4,0,6.7-0.7,9.7-2.1
	c2.4-1.1,60-27.1,118.4-75.4c34.7-28.7,62.5-59.5,82.6-91.3c25.9-41,39-83.9,39-127.6c0-37.7-13.9-74.9-38.1-102.3
	C435,16.4,398.6,0,358.8,0L358.8,0z"/>
</svg>
