<?xml version="1.0" encoding="UTF-8"?><svg id="Layer_2" xmlns="http://www.w3.org/2000/svg" viewBox="0 0 325.46 200.6"><g id="Layer_1-2"><path d="M262.51,121.63c-22.92,20.59-95.92,77.39-95.92,77.39-1.17,.72-2.32,1.58-3.8,1.58s-2.79-.8-3.69-1.47c-.01-.01-2.35-1.83-6.32-4.94,18.1-14.16,70.87-55.62,89.73-72.56,46.88-42.14,14.43-104.09-30.32-118.42-3.29-1.06-6.67-1.87-10.1-2.41,6.76-1.09,13.48-1.03,20,0,3.43,.54,6.81,1.35,10.1,2.41,44.75,14.33,77.2,76.28,30.32,118.42Z" style="fill:#ff6647;"/><path d="M302.51,121.63c-22.92,20.59-95.92,77.39-95.92,77.39-1.17,.72-2.32,1.58-3.8,1.58s-2.79-.8-3.69-1.47c-.01-.01-2.35-1.83-6.32-4.94,18.1-14.16,70.87-55.62,89.73-72.56,46.88-42.14,14.43-104.09-30.32-118.42-3.29-1.06-6.67-1.87-10.1-2.41,6.76-1.09,13.48-1.03,20,0,3.43,.54,6.81,1.35,10.1,2.41,44.75,14.33,77.2,76.28,30.32,118.42Z" style="fill:#ff6647;"/><path d="M222.51,121.63c-16.09,14.45-56.86,46.75-79.73,64.72-2.8,2.2-5.33,4.18-7.51,5.89-.89,.7-1.72,1.35-2.49,1.95h-.01c-3.9,3.05-6.18,4.83-6.18,4.83-1.17,.72-2.32,1.58-3.8,1.58s-2.79-.8-3.69-1.47c-.08-.07-73.08-56.88-96.02-77.5C-30.25,73.7,18.37,.88,72.54,.02c3.64-.07,7.31,.18,10.99,.78,.02,0,.04,.01,.06,.01h.01c.84,.14,1.68,.28,2.52,.45h0c2.43,.5,4.87,1.15,7.3,1.95,.03,.01,.07,.02,.1,.04,10.05,3.33,19.99,9.38,29.28,18.67,3.26-3.26,6.59-6.11,9.99-8.61h.01c3.29-2.4,6.63-4.45,10-6.17C155.84,.49,169.35-1.22,182.09,.8c3.43,.54,6.81,1.35,10.1,2.41,44.75,14.33,77.2,76.28,30.32,118.42Z" style="fill:#ff6647;"/><path d="M135.27,192.24c-.89,.7-1.72,1.35-2.49,1.95h-.01c-3.9,3.05-6.18,4.83-6.18,4.83-1.17,.72-2.32,1.58-3.8,1.58s-2.79-.8-3.69-1.47c-.08-.07-73.08-56.88-96.02-77.5C-30.25,73.7,18.37,.88,72.54,.02c3.64-.07,7.31,.18,10.99,.78,.02,0,.04,.01,.06,.01h.01c.84,.14,1.68,.28,2.52,.45C36.97,11.1-1.47,77.1,48.08,121.63c18.04,16.22,67.05,54.82,87.19,70.61Z" style="fill:#e35336;"/></g></svg>