<svg class="heart" version="1.1" id="Layer_1" xmlns="http://www.w3.org/2000/svg" xmlns:xlink="http://www.w3.org/1999/xlink" x="0px" y="0px"
	 viewBox="0 0 499.4 444.9" style="enable-background:new 0 0 499.4 444.9;" xml:space="preserve">
	<style type="text/css">
		.st0{fill:#FF6647;}
		.st1{fill:#E35336;}
	</style>
	<g v-if="favorite">
		<path class="st0" d="M449.3,56.7C426.1,30.5,393.9,16,358.8,16c-27.6,0-53.4,11.2-74.7,32.5c-14.2,14.2-25.9,32.2-34.4,52.9
			c-8.6-20.7-20.2-38.7-34.4-52.9C194.1,27.2,168.2,16,140.7,16c-35.1,0-67.3,14.5-90.6,40.7C28.4,81.2,16,114.6,16,148.4
			c0,40.6,12.3,80.6,36.5,119.1c19.2,30.4,45.9,59.9,79.3,87.5c56.6,46.9,112.4,72.1,114.7,73.2c2,0.9,4.4,0.9,6.4,0
			c2.3-1.1,58.1-26.3,114.7-73.2c33.4-27.7,60.1-57.1,79.3-87.5c24.2-38.4,36.5-78.5,36.5-119.1C483.4,114.6,471,81.2,449.3,56.7z"/>
		<path class="st1" d="M163,355.1c-33.4-27.7-60.1-57.1-79.3-87.5C59.4,229.1,47.2,189,47.2,148.4c0-33.8,12.4-67.2,34.1-91.7
			c19.6-22.1,45.4-35.9,74.1-39.7c-4.8-0.7-9.7-1.1-14.7-1.1c-35.1,0-67.3,14.5-90.6,40.7C28.4,81.2,16,114.6,16,148.4
			c0,40.6,12.3,80.6,36.5,119.1c19.2,30.4,45.9,59.9,79.3,87.5c56.6,46.9,112.4,72.1,114.7,73.2c2,0.9,4.4,0.9,6.4,0
			c0.6-0.3,5.1-2.3,12.4-6C245.4,412.1,204.4,389.4,163,355.1z"/>
	</g>
</svg>
