<?xml version="1.0" encoding="UTF-8"?><svg id="Layer_2" xmlns="http://www.w3.org/2000/svg" viewBox="0 0 245.45 200.6"><g id="Layer_1-2"><path d="M222.51,121.63c-22.92,20.6-95.92,77.39-95.92,77.39-1.16,.73-2.32,1.58-3.8,1.58s-2.79-.8-3.69-1.47c-.08-.07-73.08-56.88-96.02-77.5C-30.25,73.69,18.37,.88,72.54,.02c3.64-.07,7.31,.18,10.99,.78,3.3,.52,6.6,1.32,9.9,2.41,10.08,3.33,20.06,9.39,29.38,18.71,3.26-3.26,6.6-6.12,10-8.61,3.29-2.4,6.63-4.45,10-6.17C155.84,.49,169.35-1.22,182.09,.8c3.43,.54,6.81,1.35,10.1,2.41,44.75,14.33,77.2,76.29,30.32,118.42Z" style="fill:#999;"/><path d="M135.27,192.24c-5.4,4.22-8.68,6.78-8.68,6.78-1.17,.72-2.32,1.58-3.8,1.58s-2.79-.8-3.69-1.47c-.08-.07-73.08-56.88-96.02-77.5C-30.25,73.7,18.37,.88,72.54,.02c3.64-.07,7.31,.18,10.99,.78,.87,.14,1.73,.29,2.6,.46C36.98,11.09-1.47,77.1,48.08,121.63c18.04,16.22,67.05,54.82,87.19,70.61Z" style="fill:#7f7f7f;"/></g></svg>