<?xml version="1.0" encoding="UTF-8"?><svg id="Layer_1" xmlns="http://www.w3.org/2000/svg" viewBox="0 0 426.12 333.48"><path d="M226.46,9.82V323.68c0,3.62-1.13,6.3-3.02,7.92-3.16,2.74-8.49,2.55-14.26-1.01l-2.77-1.71-40.27-24.86-76.4-47.18H9.89c-5.44,0-9.89-6.75-9.89-14.99V86.1c0-8.24,4.45-14.99,9.89-14.99H98.68L166.19,29.42,206.33,4.64l2.84-1.76c5.78-3.55,11.09-3.75,14.25-.99,1.91,1.61,3.04,4.3,3.04,7.92Z" style="fill:#b7bbc8;"/><path d="M259.38,7.16v25.36c0,3.71,2.9,6.79,6.61,6.98,67.3,3.44,120.8,59.1,120.8,127.24s-53.5,123.81-120.8,127.25c-3.71,.19-6.61,3.27-6.61,6.98v25.36c0,4.01,3.35,7.17,7.36,7,88.54-3.86,159.38-77.1,159.38-166.58S355.27,4.02,266.74,.16c-4-.17-7.36,2.99-7.36,7Z" style="fill:#b7bbc8;"/><path d="M348.99,166.75c0,41.65-28.98,76.53-67.87,85.58-4.07,.95-8.24,1.61-12.5,1.97s-7.5-2.92-7.5-6.98V86.17c0-4.06,3.45-7.33,7.5-6.98,4.26,.36,8.43,1.03,12.5,1.97,38.89,9.05,67.87,43.94,67.87,85.59Z" style="fill:#b7bbc8;"/></svg>